# xmcd
#
# Track frame offsets: 
#        150
#        24347
#        46475
#        61699
#        81831
#        101489
#        121353
#        142032
#        172824
#        191488
#        209573
#        227614
#        243807
#        264594
#        280728
#        298738
#        315419
#        330355
#
# Disc length: 4635 seconds
#
# Revision: 2
# Processed by: cddbd v1.5.2PL0 Copyright (c) Steve Scherf et al.
# Submitted via: ExactAudioCopyFreeDBPlugin 1.0
#
DISCID=f5121912
DTITLE=B-52's - Les Légendes De La Pop
DYEAR=2003
DGENRE=Pop
TTITLE0=Love Shack
TTITLE1=Roam
TTITLE2=Party Out Of Bounds
TTITLE3=Devil In My Car
TTITLE4=Wig
TTITLE5=Theme From A Nude Beach
TTITLE6=Dance This Mess Around
TTITLE7=Rock Lobster
TTITLE8=Hero Workship
TTITLE9=Strobe Light
TTITLE10=Give Me Back My Man
TTITLE11=Girls
TTITLE12=Planet Claire
TTITLE13=Private Idaho
TTITLE14=Song For A Future Generation
TTITLE15=Legal Tender
TTITLE16=Dirty Back Road
TTITLE17=Mesopotamia
EXTD=
EXTT0=
EXTT1=
EXTT2=
EXTT3=
EXTT4=
EXTT5=
EXTT6=
EXTT7=
EXTT8=
EXTT9=
EXTT10=
EXTT11=
EXTT12=
EXTT13=
EXTT14=
EXTT15=
EXTT16=
EXTT17=
PLAYORDER=
